<?xml version="1.0" encoding="UTF-8" standalone="no"?>
<!-- Created with Inkscape (http://www.inkscape.org/) -->

<svg
   xmlns:dc="http://purl.org/dc/elements/1.1/"
   xmlns:cc="http://creativecommons.org/ns#"
   xmlns:rdf="http://www.w3.org/1999/02/22-rdf-syntax-ns#"
   xmlns:svg="http://www.w3.org/2000/svg"
   xmlns="http://www.w3.org/2000/svg"
   xmlns:sodipodi="http://sodipodi.sourceforge.net/DTD/sodipodi-0.dtd"
   xmlns:inkscape="http://www.inkscape.org/namespaces/inkscape"
   width="24"
   height="24"
   viewBox="0 0 24 24"
   id="svg4225"
   version="1.1"
   inkscape:version="0.92.2 (5c3e80d, 2017-08-06)"
   sodipodi:docname="TUserCustomizedUserManagment.svg"
   inkscape:export-filename="TUserCustomizedUserManagment.png"
   inkscape:export-xdpi="96"
   inkscape:export-ydpi="96">
  <defs
     id="defs4227" />
  <sodipodi:namedview
     id="base"
     pagecolor="#ffffff"
     bordercolor="#666666"
     borderopacity="1.0"
     inkscape:pageopacity="0.0"
     inkscape:pageshadow="2"
     inkscape:zoom="28.902476"
     inkscape:cx="12.129421"
     inkscape:cy="10.024299"
     inkscape:document-units="px"
     inkscape:current-layer="layer1"
     showgrid="true"
     inkscape:snap-bbox="true"
     inkscape:bbox-paths="true"
     inkscape:bbox-nodes="true"
     inkscape:snap-bbox-edge-midpoints="true"
     inkscape:snap-bbox-midpoints="true"
     inkscape:object-paths="true"
     inkscape:snap-intersection-paths="true"
     inkscape:object-nodes="true"
     inkscape:snap-smooth-nodes="true"
     inkscape:snap-midpoints="true"
     inkscape:snap-object-midpoints="true"
     inkscape:snap-center="true"
     units="px"
     inkscape:window-width="1920"
     inkscape:window-height="1137"
     inkscape:window-x="-8"
     inkscape:window-y="-8"
     inkscape:window-maximized="1"
     showguides="true"
     inkscape:guide-bbox="true"
     inkscape:snap-grids="true">
    <inkscape:grid
       type="xygrid"
       id="grid4241" />
  </sodipodi:namedview>
  <metadata
     id="metadata4230">
    <rdf:RDF>
      <cc:Work
         rdf:about="">
        <dc:format>image/svg+xml</dc:format>
        <dc:type
           rdf:resource="http://purl.org/dc/dcmitype/StillImage" />
        <dc:title />
      </cc:Work>
    </rdf:RDF>
  </metadata>
  <g
     inkscape:label="Ebene 1"
     inkscape:groupmode="layer"
     id="layer1"
     transform="translate(0,-1028.3622)">
    <g
       id="g886">
      <path
         sodipodi:nodetypes="ccccc"
         inkscape:connector-curvature="0"
         id="path817"
         d="m 5.7499827,1041.5237 c 2.9999929,-2.2153 8.2499803,-2.2153 10.4999753,0 l 2.250054,10.3385 H 3.4999879 l 2.2499948,-10.3385"
         style="fill:#2a7fff;fill-rule:evenodd;stroke:#003380;stroke-width:0.99999994px;stroke-linecap:round;stroke-linejoin:round;stroke-opacity:1" />
      <g
         id="g879">
        <ellipse
           ry="5.499999"
           rx="4.9999995"
           cy="1035.3622"
           cx="11"
           id="ellipse849"
           style="opacity:1;fill:#deaa87;fill-opacity:1;fill-rule:evenodd;stroke:#deaa87;stroke-width:0;stroke-linecap:square;stroke-linejoin:round;stroke-miterlimit:4;stroke-dasharray:none;stroke-dashoffset:0;stroke-opacity:1;paint-order:normal" />
        <ellipse
           style="opacity:1;fill:#ffccaa;fill-opacity:1;fill-rule:evenodd;stroke:#deaa87;stroke-width:0;stroke-linecap:square;stroke-linejoin:round;stroke-miterlimit:4;stroke-dasharray:none;stroke-dashoffset:0;stroke-opacity:1;paint-order:normal"
           id="ellipse851"
           cx="11"
           cy="1035.5122"
           rx="4.4999995"
           ry="5.2499995" />
        <path
           style="fill:#a05a2c;fill-rule:evenodd;stroke:none;stroke-width:1px;stroke-linecap:butt;stroke-linejoin:miter;stroke-opacity:1"
           d="m 6,1035.3622 c 0,0 2.0147835,-3.0058 2.8842855,-1.9529 1.6926085,2.0496 3.0624885,-2.2374 7.1157145,1.9529 1,-4 -2.022097,-6.4861 -4.914062,-5.5077 C 8,1028.9203 5,1032.3622 6,1035.3622 Z"
           id="path820"
           inkscape:connector-curvature="0"
           sodipodi:nodetypes="csccc" />
      </g>
    </g>
    <path
       id="path886"
       d="m 16.156249,1038.6122 -0.281249,2.25 -1.261232,0.5229 -1.79077,-1.3931 -1.193115,1.193 1.393067,1.7909 -0.52295,1.2613 -2.25,0.2812 v 1.6875 l 2.25,0.2812 0.52295,1.2613 -1.393069,1.7908 1.193117,1.1931 1.79077,-1.393 1.261232,0.5228 0.281249,2.2501 h 1.687501 l 0.281251,-2.2501 1.261229,-0.5228 1.790772,1.393 1.193115,-1.1931 -1.393067,-1.7908 0.52295,-1.2613 2.25,-0.2812 v -1.6875 l -2.25,-0.2812 -0.52295,-1.2613 1.393067,-1.7909 -1.193115,-1.193 -1.790772,1.3931 -1.261229,-0.5229 -0.281251,-2.25 z M 17,1043.1121 a 2.25,2.2500022 0 0 1 2.25,2.2501 2.25,2.2500022 0 0 1 -2.25,2.2499 2.25,2.2500022 0 0 1 -2.25,-2.2499 2.25,2.2500022 0 0 1 2.25,-2.2501 z"
       style="fill:#ffffff;fill-opacity:1;fill-rule:evenodd;stroke:#aa0000;stroke-width:0.5;stroke-linecap:butt;stroke-linejoin:round;stroke-miterlimit:4;stroke-dasharray:none;stroke-opacity:1"
       inkscape:connector-curvature="0" />
  </g>
</svg>
