<?xml version="1.0" encoding="UTF-8" standalone="no"?>
<!-- Created with Inkscape (http://www.inkscape.org/) -->

<svg
   xmlns:dc="http://purl.org/dc/elements/1.1/"
   xmlns:cc="http://creativecommons.org/ns#"
   xmlns:rdf="http://www.w3.org/1999/02/22-rdf-syntax-ns#"
   xmlns:svg="http://www.w3.org/2000/svg"
   xmlns="http://www.w3.org/2000/svg"
   xmlns:sodipodi="http://sodipodi.sourceforge.net/DTD/sodipodi-0.dtd"
   xmlns:inkscape="http://www.inkscape.org/namespaces/inkscape"
   width="36"
   height="36"
   viewBox="0 0 36 36"
   id="svg4225"
   version="1.1"
   inkscape:version="0.92.2 (5c3e80d, 2017-08-06)"
   sodipodi:docname="TUserCustomizedUserManagment_150.svg"
   inkscape:export-filename="TUserCustomizedUserManagment_150.png"
   inkscape:export-xdpi="96"
   inkscape:export-ydpi="96">
  <defs
     id="defs4227" />
  <sodipodi:namedview
     id="base"
     pagecolor="#ffffff"
     bordercolor="#666666"
     borderopacity="1.0"
     inkscape:pageopacity="0.0"
     inkscape:pageshadow="2"
     inkscape:zoom="16.000001"
     inkscape:cx="10.799901"
     inkscape:cy="15.526089"
     inkscape:document-units="px"
     inkscape:current-layer="layer1"
     showgrid="true"
     inkscape:snap-bbox="true"
     inkscape:bbox-paths="true"
     inkscape:bbox-nodes="true"
     inkscape:snap-bbox-edge-midpoints="true"
     inkscape:snap-bbox-midpoints="true"
     inkscape:object-paths="true"
     inkscape:snap-intersection-paths="true"
     inkscape:object-nodes="true"
     inkscape:snap-smooth-nodes="true"
     inkscape:snap-midpoints="true"
     inkscape:snap-object-midpoints="true"
     inkscape:snap-center="true"
     units="px"
     inkscape:window-width="1920"
     inkscape:window-height="1137"
     inkscape:window-x="-8"
     inkscape:window-y="-8"
     inkscape:window-maximized="1"
     showguides="true"
     inkscape:guide-bbox="true"
     inkscape:snap-grids="true">
    <inkscape:grid
       type="xygrid"
       id="grid4241" />
  </sodipodi:namedview>
  <metadata
     id="metadata4230">
    <rdf:RDF>
      <cc:Work
         rdf:about="">
        <dc:format>image/svg+xml</dc:format>
        <dc:type
           rdf:resource="http://purl.org/dc/dcmitype/StillImage" />
        <dc:title />
      </cc:Work>
    </rdf:RDF>
  </metadata>
  <g
     inkscape:label="Ebene 1"
     inkscape:groupmode="layer"
     id="layer1"
     transform="translate(0,-1016.3622)">
    <g
       id="g842">
      <path
         sodipodi:nodetypes="ccccc"
         inkscape:connector-curvature="0"
         id="path817"
         d="m 7.949978,1035.9237 c 4.599987,-3.4152 12.649963,-3.4152 16.099953,0 l 3.450081,15.9385 H 4.499988 l 3.44999,-15.9385"
         style="fill:#2a7fff;fill-rule:evenodd;stroke:#003380;stroke-width:1px;stroke-linecap:round;stroke-linejoin:round;stroke-opacity:1" />
      <g
         style="stroke-width:0.66666669"
         transform="matrix(1.5,0,0,1.5,44.500462,-536.93091)"
         id="g833">
        <ellipse
           ry="5.499999"
           rx="4.9999995"
           cy="1042.3621"
           cx="-19"
           id="ellipse849"
           style="opacity:1;fill:#deaa87;fill-opacity:1;fill-rule:evenodd;stroke:#deaa87;stroke-width:0;stroke-linecap:square;stroke-linejoin:round;stroke-miterlimit:4;stroke-dasharray:none;stroke-dashoffset:0;stroke-opacity:1;paint-order:normal" />
        <ellipse
           style="opacity:1;fill:#ffccaa;fill-opacity:1;fill-rule:evenodd;stroke:#deaa87;stroke-width:0;stroke-linecap:square;stroke-linejoin:round;stroke-miterlimit:4;stroke-dasharray:none;stroke-dashoffset:0;stroke-opacity:1;paint-order:normal"
           id="ellipse851"
           cx="-19"
           cy="1042.5122"
           rx="4.4999995"
           ry="5.2499995" />
        <path
           style="fill:#a05a2c;fill-rule:evenodd;stroke:none;stroke-width:0.66666669px;stroke-linecap:butt;stroke-linejoin:miter;stroke-opacity:1"
           d="m -24,1042.3622 c 0,0 2.014783,-3.0058 2.884285,-1.9529 1.692609,2.0496 3.062489,-2.2374 7.115715,1.9529 1,-4 -2.022097,-6.4861 -4.914062,-5.5077 C -22,1035.9203 -25,1039.3622 -24,1042.3622 Z"
           id="path820"
           inkscape:connector-curvature="0"
           sodipodi:nodetypes="csccc" />
      </g>
    </g>
    <path
       id="path886"
       d="m 24.249998,1031.8622 -0.416664,3.3333 -1.868492,0.7747 -2.652993,-2.0639 -1.767578,1.7674 2.063803,2.6532 -0.77474,1.8686 -3.333334,0.4167 v 2.5 l 3.333334,0.4165 0.77474,1.8686 -2.063806,2.653 1.767581,1.7676 2.652993,-2.0637 1.868492,0.7745 0.416664,3.3335 H 26.75 l 0.416668,-3.3335 1.868487,-0.7745 2.652996,2.0637 1.767578,-1.7676 -2.063803,-2.653 0.77474,-1.8686 3.333334,-0.4165 v -2.5 l -3.333334,-0.4167 -0.77474,-1.8686 2.063803,-2.6532 -1.767578,-1.7674 -2.652996,2.0639 -1.868487,-0.7747 L 26.75,1031.8622 Z M 25.5,1038.5287 a 3.3333333,3.3333366 0 0 1 3.333334,3.3335 3.3333333,3.3333366 0 0 1 -3.333334,3.3332 3.3333333,3.3333366 0 0 1 -3.333334,-3.3332 3.3333333,3.3333366 0 0 1 3.333334,-3.3335 z"
       style="fill:#ffffff;fill-opacity:1;fill-rule:evenodd;stroke:#aa0000;stroke-width:0.99999994;stroke-linecap:butt;stroke-linejoin:round;stroke-miterlimit:4;stroke-dasharray:none;stroke-opacity:1"
       inkscape:connector-curvature="0" />
  </g>
</svg>
