<?xml version="1.0" encoding="UTF-8" standalone="no"?>
<!-- Created with Inkscape (http://www.inkscape.org/) -->

<svg
   xmlns:osb="http://www.openswatchbook.org/uri/2009/osb"
   xmlns:dc="http://purl.org/dc/elements/1.1/"
   xmlns:cc="http://creativecommons.org/ns#"
   xmlns:rdf="http://www.w3.org/1999/02/22-rdf-syntax-ns#"
   xmlns:svg="http://www.w3.org/2000/svg"
   xmlns="http://www.w3.org/2000/svg"
   xmlns:sodipodi="http://sodipodi.sourceforge.net/DTD/sodipodi-0.dtd"
   xmlns:inkscape="http://www.inkscape.org/namespaces/inkscape"
   width="48"
   height="48"
   viewBox="0 0 48 48"
   id="svg4225"
   version="1.1"
   inkscape:version="0.92.2 (5c3e80d, 2017-08-06)"
   sodipodi:docname="TUserCustomizedUserManagment_200.svg"
   inkscape:export-filename="TUserCustomizedUserManagment_200.png"
   inkscape:export-xdpi="96"
   inkscape:export-ydpi="96">
  <defs
     id="defs4227">
    <linearGradient
       id="linearGradient826"
       osb:paint="solid">
      <stop
         style="stop-color:#e6e6e6;stop-opacity:1;"
         offset="0"
         id="stop824" />
    </linearGradient>
  </defs>
  <sodipodi:namedview
     id="base"
     pagecolor="#ffffff"
     bordercolor="#666666"
     borderopacity="1.0"
     inkscape:pageopacity="0.0"
     inkscape:pageshadow="2"
     inkscape:zoom="16"
     inkscape:cx="29.954576"
     inkscape:cy="23.484027"
     inkscape:document-units="px"
     inkscape:current-layer="layer1"
     showgrid="true"
     inkscape:snap-bbox="true"
     inkscape:bbox-paths="true"
     inkscape:bbox-nodes="true"
     inkscape:snap-bbox-edge-midpoints="true"
     inkscape:snap-bbox-midpoints="true"
     inkscape:object-paths="true"
     inkscape:snap-intersection-paths="true"
     inkscape:object-nodes="true"
     inkscape:snap-smooth-nodes="true"
     inkscape:snap-midpoints="true"
     inkscape:snap-object-midpoints="true"
     inkscape:snap-center="true"
     units="px"
     inkscape:window-width="1920"
     inkscape:window-height="1137"
     inkscape:window-x="-8"
     inkscape:window-y="-8"
     inkscape:window-maximized="1"
     showguides="true"
     inkscape:guide-bbox="true">
    <inkscape:grid
       type="xygrid"
       id="grid4241" />
  </sodipodi:namedview>
  <metadata
     id="metadata4230">
    <rdf:RDF>
      <cc:Work
         rdf:about="">
        <dc:format>image/svg+xml</dc:format>
        <dc:type
           rdf:resource="http://purl.org/dc/dcmitype/StillImage" />
        <dc:title />
      </cc:Work>
    </rdf:RDF>
  </metadata>
  <g
     inkscape:label="Ebene 1"
     inkscape:groupmode="layer"
     id="layer1"
     transform="translate(0,-1004.3622)">
    <g
       id="g861">
      <path
         sodipodi:nodetypes="ccccc"
         inkscape:connector-curvature="0"
         id="path817"
         d="m 11,1031.3622 c 5,-5 18,-5 22,0 l 4,20 H 7 l 4,-20"
         style="fill:#2a7fff;fill-rule:evenodd;stroke:#003380;stroke-width:2;stroke-linecap:round;stroke-linejoin:round;stroke-miterlimit:4;stroke-dasharray:none;stroke-opacity:1" />
      <g
         transform="translate(22.000308,-63.110211)"
         id="g852">
        <ellipse
           ry="10.999998"
           rx="9.999999"
           cy="1081.4724"
           cx="0.00030769725"
           id="ellipse849"
           style="opacity:1;fill:#deaa87;fill-opacity:1;fill-rule:evenodd;stroke:#deaa87;stroke-width:0;stroke-linecap:square;stroke-linejoin:round;stroke-miterlimit:4;stroke-dasharray:none;stroke-dashoffset:0;stroke-opacity:1;paint-order:normal" />
        <ellipse
           style="opacity:1;fill:#ffccaa;fill-opacity:1;fill-rule:evenodd;stroke:#deaa87;stroke-width:0;stroke-linecap:square;stroke-linejoin:round;stroke-miterlimit:4;stroke-dasharray:none;stroke-dashoffset:0;stroke-opacity:1;paint-order:normal"
           id="ellipse851"
           cx="0.00030769725"
           cy="1081.7727"
           rx="8.999999"
           ry="10.499999" />
        <path
           style="fill:#a05a2c;fill-rule:evenodd;stroke:none;stroke-width:1px;stroke-linecap:butt;stroke-linejoin:miter;stroke-opacity:1"
           d="m -9.9996921,1081.4727 c 0,0 4.029567,-6.0116 5.768571,-3.9058 3.38521697,4.0992 6.124977,-4.4748 14.2314281,3.9058 2,-8 -4.0441931,-12.9722 -9.82812313,-11.0154 -6.17187597,-1.8684 -12.17187587,5.0154 -10.17187597,11.0154 z"
           id="path820-5"
           inkscape:connector-curvature="0"
           sodipodi:nodetypes="csccc" />
      </g>
    </g>
    <path
       id="path886"
       d="m 32.312498,1024.8622 -0.562498,4.5 -2.522464,1.0458 -3.58154,-2.7862 -2.38623,2.386 2.786134,3.5816 -1.0459,2.5228 -4.5,0.5624 v 3.375 l 4.5,0.5624 1.0459,2.5226 -2.786138,3.5816 2.386234,2.3862 3.58154,-2.786 2.522464,1.0456 0.562498,4.5002 H 35.6875 l 0.562502,-4.5002 2.522458,-1.0456 3.581544,2.786 2.38623,-2.3862 -2.786134,-3.5816 1.0459,-2.5226 4.5,-0.5624 v -3.375 l -4.5,-0.5624 -1.0459,-2.5228 2.786134,-3.5816 -2.38623,-2.386 -3.581544,2.7862 -2.522458,-1.0458 -0.562502,-4.5 z M 34,1033.862 a 4.5,4.5000044 0 0 1 4.5,4.5002 4.5,4.5000044 0 0 1 -4.5,4.4998 4.5,4.5000044 0 0 1 -4.5,-4.4998 4.5,4.5000044 0 0 1 4.5,-4.5002 z"
       style="fill:#ffffff;fill-opacity:1;fill-rule:evenodd;stroke:#aa0000;stroke-width:1;stroke-linecap:butt;stroke-linejoin:round;stroke-miterlimit:4;stroke-dasharray:none;stroke-opacity:1"
       inkscape:connector-curvature="0" />
  </g>
</svg>
